# xmcd
#
# Track frame offsets:
#	180
#	14546
#	24228
#	35966
#	47244
#	59476
#	74196
#	84456
#	94588
#	105097
#	119642
#	136041
#	147473
#	159625
#	176199
#	186870
#
# Disc length: 2551 seconds
#
# Revision: 0
# Processed by: cddbd v1.4PL0 Copyright (c) Steve Scherf et al.
# Submitted via: EasyCDDAExtractor 4.6.0.1
#
DISCID=e909f510
DTITLE=Lente-Oes Boere Orkes - Lekker Stoutgat Treffers Vol2
DYEAR=1997
DGENRE=Afrikaans
TTITLE0=Bloubul Horing
TTITLE1=Liewe Skoonma
TTITLE2=Byt Sy #*!@? Oor
TTITLE3=#*!@? In Die Gang
TTITLE4=Kooivlooitjie
TTITLE5=Krap my bal
TTITLE6=Pale Toe
TTITLE7=Ons Raak So Gesellig
TTITLE8=Daar By Die Wingerdstok
TTITLE9=Sy't Ge#*!@?
TTITLE10=Huis Met Die Sink #*!@?Huis
TTITLE11=Apiekoors
TTITLE12=Lekkerkry Setees
TTITLE13=Briekmerk Skoffel
TTITLE14=Wals Van Die Ouderdom
TTITLE15=Hier Sit Ons Weer
EXTD=
EXTT0=
EXTT1=
EXTT2=
EXTT3=
EXTT4=
EXTT5=
EXTT6=
EXTT7=
EXTT8=
EXTT9=
EXTT10=
EXTT11=
EXTT12=
EXTT13=
EXTT14=
EXTT15=
PLAYORDER=
